<svg id="buttonsHeader" width="33" height="27" viewBox="0 0 43 37" fill="none" xmlns="http://www.w3.org/2000/svg">
<path fill-rule="evenodd" clip-rule="evenodd" d="M21.921 3.7C15.2151 3.7 9.90683 8.50445 9.90683 14.2024V20.2889C9.90693 20.6567 9.7886 21.0161 9.56694 21.3212L6.31798 25.7983L6.29799 25.826C5.92211 26.3218 5.96409 26.7732 6.15803 27.0969C6.35797 27.4355 6.79583 27.75 7.5016 27.75H36.5443C36.8087 27.7429 37.0663 27.6712 37.291 27.5422C37.5157 27.4132 37.6996 27.2315 37.8239 27.0156C38.0838 26.5827 38.0439 26.1886 37.7979 25.8871L37.7599 25.8408L34.3071 21.3638C34.0655 21.0506 33.9355 20.6755 33.9352 20.2908V14.2043C33.9241 12.8218 33.6168 11.4551 33.0309 10.1833C32.4451 8.91148 31.5924 7.75984 30.5223 6.79505C28.199 4.91545 25.216 3.7 21.921 3.7ZM5.90811 14.2024C5.90811 6.29555 13.1918 0 21.923 0C26.3316 0 30.2403 1.63725 33.1934 4.04225L33.2534 4.09035C34.7235 5.40147 35.895 6.97168 36.6989 8.7084C37.5028 10.4451 37.9227 12.3132 37.9339 14.2024V19.697L40.9989 23.6707C42.3525 25.3358 42.2085 27.3449 41.3088 28.8267C40.4171 30.2975 38.6757 31.45 36.5443 31.45H7.5016C3.17898 31.45 0.403865 27.1913 3.00903 23.7207L5.90811 19.7266V14.2024ZM14.0095 35.15C14.0095 34.6594 14.2202 34.1888 14.5951 33.8419C14.9701 33.4949 15.4786 33.3 16.0089 33.3H28.0051C28.5353 33.3 29.0439 33.4949 29.4188 33.8419C29.7938 34.1888 30.0044 34.6594 30.0044 35.15C30.0044 35.6407 29.7938 36.1112 29.4188 36.4581C29.0439 36.8051 28.5353 37 28.0051 37H16.0089C15.4786 37 14.9701 36.8051 14.5951 36.4581C14.2202 36.1112 14.0095 35.6407 14.0095 35.15Z" fill="white"/>
</svg>
