<svg width="33" height="27" viewBox="0 0 43 37" fill="none" xmlns="http://www.w3.org/2000/svg">
<path d="M24.4484 27.6344C22.1359 27.6344 20.2859 29.4844 20.2859 31.7969C20.2859 34.1094 22.1359 35.9594 24.4484 35.9594C26.7609 35.9594 28.6109 34.1094 28.6109 31.7969C28.6109 29.5422 26.7031 27.6344 24.4484 27.6344ZM24.4484 33.4156C23.5812 33.4156 22.8875 32.7219 22.8875 31.8547C22.8875 30.9875 23.5812 30.2937 24.4484 30.2937C25.3156 30.2937 26.0093 30.9875 26.0093 31.8547C26.0093 32.6641 25.2578 33.4156 24.4484 33.4156ZM13.464 27.6344C11.1515 27.6344 9.30154 29.4844 9.30154 31.7969C9.30154 34.1094 11.1515 35.9594 13.464 35.9594C15.7765 35.9594 17.6265 34.1094 17.6265 31.7969C17.6265 29.5422 15.7187 27.6344 13.464 27.6344ZM13.464 33.4156C12.5968 33.4156 11.9031 32.7219 11.9031 31.8547C11.9031 30.9875 12.5968 30.2937 13.464 30.2937C14.3312 30.2937 15.025 30.9875 15.025 31.8547C15.025 32.6641 14.3312 33.4156 13.464 33.4156ZM36.6469 1.04062H33.525C32.1375 1.04062 30.9234 2.08124 30.75 3.46874L29.825 10.1172H6.98904C6.41091 10.1172 5.83279 10.4062 5.4281 10.8687C5.08122 11.3312 4.90779 11.9672 5.08122 12.5453V12.6609L8.6656 23.4719C8.89685 24.2812 9.64841 24.8594 10.5156 24.8594H26.4718C28.6109 24.8594 30.4609 23.2406 30.75 21.1016L33.1781 3.81562C33.1781 3.69999 33.2937 3.64218 33.4093 3.64218H36.5312C37.225 3.64218 37.8609 3.06406 37.8609 2.31249C37.8609 1.56093 37.3406 1.04062 36.6469 1.04062ZM28.264 20.6969C28.1484 21.5641 27.3969 22.2 26.5297 22.2H11.0359L7.91404 12.7187H29.4203L28.264 20.6969Z" fill="white"/>
</svg>
