<svg width="43" height="37" viewBox="0 0 43 37" fill="none" xmlns="http://www.w3.org/2000/svg">
<path d="M21.5 0C19.1376 0 16.8283 0.571056 14.864 1.64095C12.8998 2.71085 11.3688 4.23154 10.4648 6.01071C9.56073 7.78989 9.32419 9.74764 9.78506 11.6364C10.2459 13.5252 11.3835 15.2601 13.054 16.6218C14.7245 17.9836 16.8528 18.9109 19.1698 19.2866C21.4867 19.6623 23.8884 19.4695 26.0709 18.7325C28.2535 17.9956 30.119 16.7476 31.4314 15.1463C32.7439 13.5451 33.4444 11.6626 33.4444 9.73684C33.4444 7.15447 32.186 4.67787 29.946 2.85186C27.706 1.02584 24.6679 0 21.5 0ZM21.5 15.5789C20.0826 15.5789 18.697 15.2363 17.5184 14.5944C16.3399 13.9524 15.4213 13.04 14.8789 11.9725C14.3364 10.905 14.1945 9.73036 14.471 8.5971C14.7476 7.46385 15.4301 6.42288 16.4324 5.60585C17.4347 4.78882 18.7117 4.23241 20.1019 4.00699C21.4921 3.78157 22.933 3.89727 24.2426 4.33944C25.5521 4.78162 26.6714 5.53041 27.4589 6.49114C28.2463 7.45187 28.6667 8.58138 28.6667 9.73684C28.6667 11.2863 27.9116 12.7722 26.5676 13.8678C25.2236 14.9634 23.4007 15.5789 21.5 15.5789ZM43 37V35.0526C43 31.4373 41.2382 27.9701 38.1022 25.4137C34.9661 22.8572 30.7128 21.4211 26.2778 21.4211H16.7222C12.2872 21.4211 8.03385 22.8572 4.89783 25.4137C1.7618 27.9701 0 31.4373 0 35.0526V37H4.77778V35.0526C4.77778 32.4703 6.03621 29.9937 8.27622 28.1676C10.5162 26.3416 13.5544 25.3158 16.7222 25.3158H26.2778C29.4456 25.3158 32.4838 26.3416 34.7238 28.1676C36.9638 29.9937 38.2222 32.4703 38.2222 35.0526V37H43Z" fill="white"/>
</svg>
